<?xml version="1.0" encoding="utf-8"?>
<!-- Generator: Adobe Illustrator 19.0.0, SVG Export Plug-In . SVG Version: 6.00 Build 0)  -->
<svg version="1.1" xmlns="http://www.w3.org/2000/svg" xmlns:xlink="http://www.w3.org/1999/xlink" x="0px" y="0px"
	 viewBox="0 0 498.7 498.7" style="enable-background:new 0 0 498.7 498.7;" xml:space="preserve">
<style type="text/css">
	._x005B_Por_x0020_defecto_x005D_{fill:#FFFFFF;stroke:#000000;stroke-miterlimit:10;}
	.Sombra_x0020_paralela{fill:none;}
	.Resplandor_x0020_externo_x0020_5_x0020_pt_x002E_{fill:none;}
	.A_x0020_todo_x0020_ritmo_GS{fill:#A6D0E4;}
	.st0{fill:#FFFFFF;}
	.st1{opacity:0.25;}
	.st2{clip-path:url(#SVGID_2_);fill:#83D3AA;}
	.st3{clip-path:url(#SVGID_2_);fill:#B3E0E5;}
	.st4{clip-path:url(#SVGID_2_);fill:#FAB900;}
	.st5{fill:#231F20;}
	.st6{fill:#E7E7E0;}
	.st7{fill:#D32F2F;}
	.st8{fill:#F2F1E8;}
	.st9{fill:#EAB296;}
	.st10{fill:#383334;}
	.st11{fill:#FDD2B9;}
	.st12{fill:#F4A7A2;}
	.st13{fill:#FFBD1A;}
	.st14{fill:#F9A91C;}
	.st15{fill:#929FA9;}
	.st16{fill:#BEC9D2;}
	.st17{fill:#D2D2CC;}
	.st18{fill:#E9E9E7;}
	.st19{fill:#F36C3B;}
	.st20{fill:#4B2D23;}
	.st21{fill:#B46133;}
	.st22{fill:#6AC17B;}
	.st23{fill:#207B5D;}
	.st24{fill:#884637;}
	.st25{fill:#932424;}
	.st26{fill:#E24949;}
	.st27{fill:#7D97CD;}
	.st28{fill:#5574AA;}
	.st29{font-family:'Broadway';}
	.st30{font-size:146.8353px;}
</style>
<g id="BACKGROUND">
	<rect x="-0.7" y="-0.7" class="st0" width="500" height="500"/>
</g>
<g id="OBJECTS">
	<g class="st1">
		<defs>
			<rect id="SVGID_1_" x="-0.2" y="-0.7" class="st1" width="500" height="500"/>
		</defs>
		<clipPath id="SVGID_2_">
			<use xlink:href="#SVGID_1_"  style="overflow:visible;"/>
		</clipPath>
		<path class="st2" d="M408.3,374c1.7-4.9,2.6-10.1,2.6-15.5c0-26.7-21.6-48.3-48.3-48.3c-26.7,0-48.3,21.6-48.3,48.3
			c0,26.7,21.6,48.3,48.3,48.3c0,0,0.1,0,0.1,0c-0.1,1-0.1,2-0.1,3c0,20.3,16.5,36.8,36.8,36.8c20.3,0,36.8-16.5,36.8-36.8
			C436.2,392.5,424.3,378,408.3,374z"/>
		<ellipse class="st3" cx="389.9" cy="133.1" rx="81.8" ry="81.9"/>
		
			<ellipse transform="matrix(-2.596432e-002 -0.9997 0.9997 -2.596432e-002 -246.5591 327.8739)" class="st3" cx="36.5" cy="284.1" rx="37.6" ry="37.6"/>
		<path class="st4" d="M123.6,117.6c2-12.3-6.3-23.9-18.6-26c-8.1-1.3-15.9,1.8-20.9,7.6c-3.7-1.9-7.6-3.2-11.9-3.9
			C50,91.6,29,106.7,25.3,128.9c-3.7,22.2,11.3,43.2,33.6,46.9c22.2,3.7,43.2-11.3,46.9-33.6c0.4-2.1,0.5-4.3,0.6-6.4
			C115,133.9,122,126.9,123.6,117.6z"/>
		<circle class="st4" cx="93.2" cy="58.7" r="13.3"/>
		<circle class="st4" cx="436.2" cy="335.6" r="13.3"/>
		<circle class="st4" cx="460.1" cy="459.4" r="28.3"/>
		<circle class="st2" cx="180.3" cy="27.6" r="28.3"/>
		<circle class="st4" cx="78.5" cy="426" r="73.4"/>
		<circle class="st2" cx="434.5" cy="70.5" r="25.2"/>
		<circle class="st2" cx="27.1" cy="320.7" r="14.8"/>
		<circle class="st2" cx="23.2" cy="358.1" r="7.4"/>
		<circle class="st2" cx="113.9" cy="398.7" r="10.5"/>
		<circle class="st3" cx="234.2" cy="451.8" r="30.7"/>
		<circle class="st3" cx="436.2" cy="409.8" r="21.6"/>
		<ellipse class="st3" cx="285.4" cy="91.2" rx="6.9" ry="6.5"/>
		<ellipse class="st3" cx="292.7" cy="45.3" rx="14.3" ry="13.4"/>
		<ellipse class="st3" cx="463.7" cy="16.8" rx="14.3" ry="13.4"/>
	</g>
	<g>
		<g>
			<g>
				<path class="st5" d="M276.9,307.3h-27.6h-27.6c0,0-74.8,37.8-74.8,113.8h102.4h102.4C351.7,345.1,276.9,307.3,276.9,307.3z"/>
				<polygon class="st6" points="249.3,307.3 221.8,307.3 249.3,421.1 276.9,307.3 				"/>
				<polygon class="st7" points="252.2,351.9 258.6,343.6 254.5,334.2 249.3,334.2 244.2,334.2 240.1,343.6 246.4,351.9 
					234.2,386.7 249.3,421 249.3,421.1 249.3,421.1 249.3,421.1 249.3,421 264.5,386.7 				"/>
				<g>
					<polygon class="st8" points="220.8,316 231.4,358.1 249.3,328.3 					"/>
					<polygon class="st8" points="277.9,316 267.2,358.1 249.3,328.3 					"/>
				</g>
				<ellipse class="st9" cx="249.3" cy="310.2" rx="26.5" ry="18.2"/>
				<g>
					<polygon class="st10" points="221.8,307.3 200.4,332.2 218.9,342.3 200.4,360.6 249.3,421.1 					"/>
					<polygon class="st10" points="276.9,307.3 298.2,332.2 279.7,342.3 298.2,360.6 249.3,421.1 					"/>
				</g>
				<g>
					<g>
						<circle class="st11" cx="192.6" cy="273.8" r="12"/>
						<circle class="st9" cx="192.6" cy="273.8" r="6.4"/>
					</g>
					<g>
						<circle class="st11" cx="306.1" cy="273.8" r="12"/>
						<circle class="st9" cx="306.1" cy="273.8" r="6.4"/>
					</g>
				</g>
				<circle class="st11" cx="249.3" cy="265.9" r="55.1"/>
				<path class="st9" d="M257.9,278.7c0,3.2-3.8,5.7-8.6,5.7c-4.7,0-8.6-2.6-8.6-5.7c0-3.2,3.8-14.7,8.6-14.7
					C254.1,264,257.9,275.6,257.9,278.7z"/>
				<g>
					<circle class="st5" cx="226.3" cy="263.9" r="5.2"/>
					<circle class="st5" cx="272.3" cy="263.9" r="5.2"/>
				</g>
				<g>
					<ellipse class="st12" cx="221.8" cy="280.2" rx="6.2" ry="3.8"/>
					<ellipse class="st12" cx="276.9" cy="280.2" rx="6.2" ry="3.8"/>
				</g>
				<path class="st5" d="M315,244.4c-3.2-14.3-6.2-28.2-19.5-32.5c0,0-8.2-16.5-19.3-19.3c-6.4-1.6-13.5-1.7-18.9-0.1
					c-5.2,1.6-10.8,1.6-16.1,0c-5.4-1.6-12.5-1.5-18.9,0.1c-11.2,2.8-19.3,19.3-19.3,19.3c-13.3,4.3-16.3,18.2-19.5,32.5
					c-3.2,14.3,6,17.8,10,17.5c4-0.3,2,11.9,2,11.9s7.7,4.9,6.3-2.9s5.7-7,8.5-14.7c2.8-7.7-3.8-6.5-3.5-13.8s10.8-16.8,18-13.5
					c2.9,1.3,7.3,3.3,11.7,5.2c8.1,3.5,17.3,3.5,25.4,0c4.3-1.9,8.8-3.9,11.7-5.2c7.2-3.3,17.7,6.2,18,13.5
					c0.3,7.3-6.3,6.2-3.5,13.8c2.8,7.7,9.8,6.8,8.5,14.7c-1.3,7.8,6.3,2.9,6.3,2.9s-2-12.2,2-11.9C309,262.2,318.2,258.7,315,244.4z
					"/>
				<g>
					<path class="st5" d="M259.2,302.4c-0.4,0-0.8-0.1-1.1-0.4c-4.9-4.9-12.8-4.9-17.7,0c-0.6,0.6-1.5,0.6-2.1,0
						c-0.6-0.6-0.6-1.5,0-2.1c6-6,15.9-6,21.9,0c0.6,0.6,0.6,1.5,0,2.1C260,302.3,259.6,302.4,259.2,302.4z"/>
				</g>
			</g>
			<path class="st13" d="M416.8,441.1h-335c-5.5,0-10-4.5-10-10l0,0c0-5.5,4.5-10,10-10h335c5.5,0,10,4.5,10,10l0,0
				C426.8,436.6,422.3,441.1,416.8,441.1z"/>
			<path class="st14" d="M416.8,441.1h-335c-5.5,0-10-4.5-10-10l0,0h355l0,0C426.8,436.6,422.3,441.1,416.8,441.1z"/>
			<g>
				<path class="st15" d="M313.9,414.1H184.8c-2.5,0-4.5,2-4.5,4.5v2.4h138.2v-2.4C318.4,416.1,316.4,414.1,313.9,414.1z"/>
				<path class="st16" d="M310.9,416.1H187.8c-4.2,0-7.5-3.4-7.5-7.5v-67.7c0-4.2,3.4-7.5,7.5-7.5h123.1c4.2,0,7.5,3.4,7.5,7.5v67.7
					C318.4,412.8,315,416.1,310.9,416.1z"/>
				<path class="st15" d="M262.7,376.6c0,7.4-6,13.4-13.4,13.4c-7.4,0-13.4-6-13.4-13.4c0-7.4,6-13.4,13.4-13.4
					c0.9,0,1.9,0.1,2.8,0.3c0.2,4.6,3.9,8.3,8.6,8.3c0.4,0,0.8,0,1.1-0.1C262.4,373.2,262.7,374.9,262.7,376.6z"/>
			</g>
			<g>
				<g>
					<g>
						<path class="st17" d="M390.8,415.7h-62.6c-1.5,0-2.7,1.2-2.7,2.7l0,0c0,1.5,1.2,2.7,2.7,2.7h62.6c1.5,0,2.7-1.2,2.7-2.7l0,0
							C393.5,416.9,392.3,415.7,390.8,415.7z"/>
						<path class="st18" d="M392.4,418.9h-65.7c-2.7,0-4.8-2.2-4.8-4.8l0,0h75.3l0,0C397.2,416.7,395,418.9,392.4,418.9z"/>
					</g>
				</g>
				<g>
					<g>
						<path class="st19" d="M361.5,414.1h-25.9c-2.9,0-5.3-2.4-5.3-5.3v-2.2c0-2.9,2.4-5.3,5.3-5.3h25.9c2.9,0,5.3,2.4,5.3,5.3v2.2
							C366.8,411.7,364.4,414.1,361.5,414.1z"/>
						<path class="st20" d="M348.6,400.8h-13.4c-3,0-5.5,2.4-5.5,5.5l0,0c0,0,3,0.8,3.9-1.1c0.9-1.9,3.4-1.4,3.5-0.3
							c0.1,1.1,0.7,4.2,2.8,3.7c2.2-0.5,1.3-4,2.5-4.5c1.2-0.5,1.8,1.2,2.7,2c0.9,0.8,2-1.4,2.6-1.7c0.5-0.3,0.8-0.2,0.8-0.2
							s0.3-0.1,0.8,0.2c0.5,0.3,1.6,2.5,2.6,1.7c0.9-0.8,1.5-2.5,2.7-2c1.2,0.5,0.3,4,2.5,4.5c2.2,0.5,2.7-2.5,2.8-3.7
							c0.1-1.1,2.6-1.6,3.5,0.3c0.9,1.9,3.9,1.1,3.9,1.1l0,0c0-3-2.4-5.5-5.5-5.5H348.6z"/>
					</g>
					<g>
						<polygon class="st21" points="399.8,421.1 372.1,421.1 368.1,364.6 403.8,364.6 						"/>
						<polygon class="st22" points="401.7,403.2 370.1,403.2 369.1,382.4 402.7,382.4 						"/>
						<rect x="367.2" y="362.3" class="st17" width="37.4" height="3.3"/>
						<path class="st18" d="M404.2,365h-36.5c-0.7,0-1.3,0.6-1.3,1.3l0,0c0,0.7,0.6,1.3,1.3,1.3h36.5c0.7,0,1.3-0.6,1.3-1.3l0,0
							C405.5,365.6,404.9,365,404.2,365z"/>
						<polygon class="st6" points="399.9,358.9 372,358.9 368.7,362.3 403.1,362.3 						"/>
						<circle class="st23" cx="385.9" cy="392.8" r="7.7"/>
					</g>
					<g>
						<g>
							<path class="st24" d="M170.3,396.3c0,4.3-3.5,7.8-7.8,7.8h-59.7v-2.5h2.5V391h-2.5v-2.5h59.7
								C166.7,388.5,170.3,392,170.3,396.3z"/>
							<path class="st11" d="M162.4,391h-58.9v10.6h58.9c2.9,0,5.3-2.4,5.3-5.3l0,0C167.8,393.4,165.4,391,162.4,391z"/>
							<polygon class="st7" points="154.5,394.4 154.5,400.5 155.8,399.1 157.1,400.4 157.1,394.4 							"/>
						</g>
						<g>
							<rect x="96.4" y="404.1" class="st7" width="69.1" height="16.9"/>
							<rect x="151.3" y="404.1" class="st25" width="7.4" height="16.9"/>
							<rect x="105.7" y="404.1" class="st25" width="7.4" height="16.9"/>
							<g>
								<rect x="117.1" y="408.1" class="st26" width="29.8" height="1.6"/>
								<rect x="117.1" y="411.8" class="st26" width="29.8" height="1.6"/>
								<rect x="117.1" y="415.5" class="st26" width="29.8" height="1.6"/>
							</g>
						</g>
						<g>
							<rect x="93.2" y="380.9" class="st27" width="69.1" height="7.6"/>
							<rect x="148.2" y="380.9" class="st28" width="7.4" height="7.6"/>
							<rect x="102.5" y="380.9" class="st28" width="7.4" height="7.6"/>
							<g>
								<rect x="114" y="382.7" class="st28" width="29.8" height="0.7"/>
								<rect x="114" y="384.4" class="st28" width="29.8" height="0.7"/>
								<rect x="114" y="386" class="st28" width="29.8" height="0.7"/>
							</g>
						</g>
					</g>
				</g>
			</g>
		</g>
		<g>
			<text transform="matrix(1 0 0 1 106.3822 154.4603)" class="st13 st29 st30">404</text>
		</g>
	</g>
</g>
<g id="DESIGNED_BY_FREEPIK">
</g>
</svg>
